<mxfile host="65bd71144e">
    <diagram id="T9b1QOeR-KZapNFQeZHe" name="Page-1">
        <mxGraphModel dx="7667" dy="2350" grid="0" gridSize="10" guides="1" tooltips="1" connect="1" arrows="1" fold="1" page="0" pageScale="1" pageWidth="827" pageHeight="1169" background="none" math="0" shadow="0">
            <root>
                <mxCell id="0"/>
                <mxCell id="1" parent="0"/>
                <mxCell id="5" value="" style="edgeStyle=none;html=1;fontSize=21;" edge="1" parent="1" source="3" target="4">
                    <mxGeometry relative="1" as="geometry"/>
                </mxCell>
                <mxCell id="3" value="Start" style="ellipse;whiteSpace=wrap;html=1;gradientColor=none;fontStyle=1;fontSize=21;" vertex="1" parent="1">
                    <mxGeometry x="340" y="50" width="120" height="60" as="geometry"/>
                </mxCell>
                <mxCell id="7" value="" style="edgeStyle=none;html=1;entryX=0.5;entryY=0;entryDx=0;entryDy=0;fontSize=21;" edge="1" parent="1" source="4" target="163">
                    <mxGeometry relative="1" as="geometry"/>
                </mxCell>
                <mxCell id="4" value="int a,b,c,d,i,x,y" style="whiteSpace=wrap;html=1;gradientColor=none;fontStyle=1;fontSize=21;" vertex="1" parent="1">
                    <mxGeometry x="340" y="140" width="120" height="60" as="geometry"/>
                </mxCell>
                <mxCell id="9" value="" style="edgeStyle=none;html=1;fontSize=21;" edge="1" parent="1" source="6" target="8">
                    <mxGeometry relative="1" as="geometry"/>
                </mxCell>
                <mxCell id="6" value="input i" style="shape=parallelogram;perimeter=parallelogramPerimeter;whiteSpace=wrap;html=1;fixedSize=1;gradientColor=none;fontStyle=1;fontSize=21;" vertex="1" parent="1">
                    <mxGeometry x="340" y="330" width="120" height="60" as="geometry"/>
                </mxCell>
                <mxCell id="11" value="" style="edgeStyle=none;html=1;fontSize=21;" edge="1" parent="1" source="8" target="10">
                    <mxGeometry relative="1" as="geometry"/>
                </mxCell>
                <mxCell id="13" value="" style="edgeStyle=none;html=1;fontSize=21;entryX=1;entryY=0.5;entryDx=0;entryDy=0;" edge="1" parent="1" source="8" target="128">
                    <mxGeometry relative="1" as="geometry">
                        <mxPoint x="259.9999999999991" y="520" as="targetPoint"/>
                    </mxGeometry>
                </mxCell>
                <mxCell id="8" value="i &amp;gt;= 100" style="shape=hexagon;perimeter=hexagonPerimeter2;whiteSpace=wrap;html=1;fixedSize=1;fontSize=21;" vertex="1" parent="1">
                    <mxGeometry x="340" y="480" width="120" height="80" as="geometry"/>
                </mxCell>
                <mxCell id="18" value="" style="edgeStyle=none;html=1;fontSize=21;" edge="1" parent="1" source="10" target="17">
                    <mxGeometry relative="1" as="geometry">
                        <Array as="points">
                            <mxPoint x="830" y="520"/>
                        </Array>
                    </mxGeometry>
                </mxCell>
                <mxCell id="10" value="x = i % 100&lt;br style=&quot;font-size: 21px;&quot;&gt;a = i / 100&lt;br style=&quot;font-size: 21px;&quot;&gt;i = i - ( i * a)" style="whiteSpace=wrap;html=1;fontSize=21;" vertex="1" parent="1">
                    <mxGeometry x="540" y="490" width="120" height="60" as="geometry"/>
                </mxCell>
                <mxCell id="14" value="a for 100&lt;br style=&quot;font-size: 21px;&quot;&gt;b for 50&lt;br style=&quot;font-size: 21px;&quot;&gt;c for 20&lt;br style=&quot;font-size: 21px;&quot;&gt;d for 10&lt;br style=&quot;font-size: 21px;&quot;&gt;" style="rounded=1;whiteSpace=wrap;html=1;fontSize=21;gradientColor=none;" vertex="1" parent="1">
                    <mxGeometry x="10" y="60" width="160" height="160" as="geometry"/>
                </mxCell>
                <mxCell id="20" value="" style="edgeStyle=none;html=1;fontSize=21;" edge="1" parent="1" source="17" target="19">
                    <mxGeometry relative="1" as="geometry"/>
                </mxCell>
                <mxCell id="21" value="" style="edgeStyle=none;html=1;fontSize=21;entryX=1;entryY=0.25;entryDx=0;entryDy=0;" edge="1" parent="1" source="17" target="23">
                    <mxGeometry relative="1" as="geometry">
                        <mxPoint x="690" y="630" as="targetPoint"/>
                    </mxGeometry>
                </mxCell>
                <mxCell id="17" value="i &amp;gt; = 50" style="shape=hexagon;perimeter=hexagonPerimeter2;whiteSpace=wrap;html=1;fixedSize=1;fontSize=21;" vertex="1" parent="1">
                    <mxGeometry x="770" y="545" width="120" height="80" as="geometry"/>
                </mxCell>
                <mxCell id="49" value="" style="edgeStyle=none;html=1;fontSize=21;" edge="1" parent="1" source="19" target="42">
                    <mxGeometry relative="1" as="geometry"/>
                </mxCell>
                <mxCell id="19" value="b = 1&lt;br style=&quot;font-size: 21px;&quot;&gt;i = i - 50&amp;nbsp;" style="whiteSpace=wrap;html=1;fontSize=21;" vertex="1" parent="1">
                    <mxGeometry x="970" y="555" width="120" height="60" as="geometry"/>
                </mxCell>
                <mxCell id="24" value="" style="edgeStyle=none;html=1;fontSize=21;" edge="1" parent="1" source="23" target="17">
                    <mxGeometry relative="1" as="geometry"/>
                </mxCell>
                <mxCell id="25" value="" style="edgeStyle=none;html=1;fontSize=21;" edge="1" parent="1" source="23" target="17">
                    <mxGeometry relative="1" as="geometry"/>
                </mxCell>
                <mxCell id="26" style="edgeStyle=none;html=1;fontSize=21;entryX=0.558;entryY=0.017;entryDx=0;entryDy=0;entryPerimeter=0;" edge="1" parent="1" source="23" target="28">
                    <mxGeometry relative="1" as="geometry">
                        <mxPoint x="790" y="690" as="targetPoint"/>
                    </mxGeometry>
                </mxCell>
                <mxCell id="27" style="edgeStyle=none;html=1;fontSize=21;entryX=0.558;entryY=0;entryDx=0;entryDy=0;entryPerimeter=0;" edge="1" parent="1" source="23" target="32">
                    <mxGeometry relative="1" as="geometry">
                        <mxPoint x="510" y="710" as="targetPoint"/>
                    </mxGeometry>
                </mxCell>
                <mxCell id="23" value="i &amp;gt; = 20" style="shape=hexagon;perimeter=hexagonPerimeter2;whiteSpace=wrap;html=1;fixedSize=1;fontSize=21;gradientColor=none;" vertex="1" parent="1">
                    <mxGeometry x="580" y="610" width="120" height="80" as="geometry"/>
                </mxCell>
                <mxCell id="67" style="edgeStyle=none;html=1;entryX=0.5;entryY=0;entryDx=0;entryDy=0;fontSize=21;" edge="1" parent="1" source="28" target="63">
                    <mxGeometry relative="1" as="geometry"/>
                </mxCell>
                <mxCell id="28" value="c = 1&lt;br style=&quot;font-size: 21px;&quot;&gt;i = i - 20" style="whiteSpace=wrap;html=1;fontSize=21;gradientColor=none;" vertex="1" parent="1">
                    <mxGeometry x="690" y="890" width="120" height="60" as="geometry"/>
                </mxCell>
                <mxCell id="36" value="" style="edgeStyle=none;html=1;fontSize=21;" edge="1" parent="1" source="32" target="35">
                    <mxGeometry relative="1" as="geometry">
                        <Array as="points">
                            <mxPoint x="530" y="995"/>
                        </Array>
                    </mxGeometry>
                </mxCell>
                <mxCell id="52" style="edgeStyle=none;html=1;entryX=0.5;entryY=0;entryDx=0;entryDy=0;fontSize=21;" edge="1" parent="1" source="32" target="50">
                    <mxGeometry relative="1" as="geometry"/>
                </mxCell>
                <mxCell id="32" value="i &amp;gt; = 10" style="shape=hexagon;perimeter=hexagonPerimeter2;whiteSpace=wrap;html=1;fixedSize=1;fontSize=21;gradientColor=none;" vertex="1" parent="1">
                    <mxGeometry x="290" y="945" width="120" height="80" as="geometry"/>
                </mxCell>
                <mxCell id="51" value="" style="edgeStyle=none;html=1;fontSize=21;" edge="1" parent="1" source="35" target="50">
                    <mxGeometry relative="1" as="geometry">
                        <Array as="points">
                            <mxPoint x="530" y="1225"/>
                        </Array>
                    </mxGeometry>
                </mxCell>
                <mxCell id="35" value="d = 1&amp;nbsp;&lt;br style=&quot;font-size: 21px;&quot;&gt;i = i -10" style="whiteSpace=wrap;html=1;fontSize=21;gradientColor=none;" vertex="1" parent="1">
                    <mxGeometry x="480" y="1065" width="120" height="60" as="geometry"/>
                </mxCell>
                <mxCell id="40" style="edgeStyle=none;html=1;fontSize=21;entryX=0.558;entryY=0.017;entryDx=0;entryDy=0;entryPerimeter=0;" edge="1" parent="1" source="42" target="44">
                    <mxGeometry relative="1" as="geometry">
                        <mxPoint x="1370" y="695" as="targetPoint"/>
                    </mxGeometry>
                </mxCell>
                <mxCell id="85" style="edgeStyle=none;html=1;entryX=0.625;entryY=0;entryDx=0;entryDy=0;fontSize=21;" edge="1" parent="1" source="42" target="81">
                    <mxGeometry relative="1" as="geometry"/>
                </mxCell>
                <mxCell id="42" value="i &amp;gt; = 20" style="shape=hexagon;perimeter=hexagonPerimeter2;whiteSpace=wrap;html=1;fixedSize=1;fontSize=21;gradientColor=none;" vertex="1" parent="1">
                    <mxGeometry x="1440" y="590" width="120" height="80" as="geometry"/>
                </mxCell>
                <mxCell id="43" value="" style="edgeStyle=none;html=1;fontSize=21;entryX=0.5;entryY=0;entryDx=0;entryDy=0;" edge="1" parent="1" source="44" target="75">
                    <mxGeometry relative="1" as="geometry">
                        <mxPoint x="1760" y="850" as="targetPoint"/>
                    </mxGeometry>
                </mxCell>
                <mxCell id="44" value="c = 1&lt;br style=&quot;font-size: 21px;&quot;&gt;i = i - 20" style="whiteSpace=wrap;html=1;fontSize=21;gradientColor=none;" vertex="1" parent="1">
                    <mxGeometry x="1760" y="720" width="120" height="60" as="geometry"/>
                </mxCell>
                <mxCell id="134" style="edgeStyle=none;html=1;fontSize=21;entryX=0.474;entryY=-0.018;entryDx=0;entryDy=0;entryPerimeter=0;" edge="1" parent="1" source="50" target="139">
                    <mxGeometry relative="1" as="geometry">
                        <mxPoint x="590" y="2150" as="targetPoint"/>
                        <Array as="points"/>
                    </mxGeometry>
                </mxCell>
                <mxCell id="50" value="a hundred&lt;br style=&quot;font-size: 21px;&quot;&gt;b fifty&amp;nbsp;&lt;br style=&quot;font-size: 21px;&quot;&gt;c twenty&amp;nbsp;&lt;br style=&quot;font-size: 21px;&quot;&gt;d = 10&lt;br style=&quot;font-size: 21px;&quot;&gt;( i amount is not possible to give)" style="whiteSpace=wrap;html=1;fontSize=21;gradientColor=none;" vertex="1" parent="1">
                    <mxGeometry x="260" y="1145" width="150" height="200" as="geometry"/>
                </mxCell>
                <mxCell id="61" value="" style="edgeStyle=none;html=1;fontSize=21;" edge="1" parent="1" source="63" target="65">
                    <mxGeometry relative="1" as="geometry">
                        <Array as="points">
                            <mxPoint x="930" y="1050"/>
                        </Array>
                    </mxGeometry>
                </mxCell>
                <mxCell id="62" style="edgeStyle=none;html=1;entryX=0.5;entryY=0;entryDx=0;entryDy=0;fontSize=21;" edge="1" parent="1" source="63" target="66">
                    <mxGeometry relative="1" as="geometry"/>
                </mxCell>
                <mxCell id="63" value="i &amp;gt; = 10" style="shape=hexagon;perimeter=hexagonPerimeter2;whiteSpace=wrap;html=1;fixedSize=1;fontSize=21;gradientColor=none;" vertex="1" parent="1">
                    <mxGeometry x="690" y="1000" width="120" height="80" as="geometry"/>
                </mxCell>
                <mxCell id="64" value="" style="edgeStyle=none;html=1;fontSize=21;" edge="1" parent="1" source="65" target="66">
                    <mxGeometry relative="1" as="geometry">
                        <Array as="points">
                            <mxPoint x="930" y="1280"/>
                        </Array>
                    </mxGeometry>
                </mxCell>
                <mxCell id="65" value="d = 1&amp;nbsp;&lt;br style=&quot;font-size: 21px;&quot;&gt;i = i -10" style="whiteSpace=wrap;html=1;fontSize=21;gradientColor=none;" vertex="1" parent="1">
                    <mxGeometry x="880" y="1120" width="120" height="60" as="geometry"/>
                </mxCell>
                <mxCell id="135" style="edgeStyle=none;html=1;fontSize=21;entryX=0.556;entryY=0.004;entryDx=0;entryDy=0;entryPerimeter=0;" edge="1" parent="1" source="66" target="139">
                    <mxGeometry relative="1" as="geometry">
                        <mxPoint x="740" y="2150" as="targetPoint"/>
                    </mxGeometry>
                </mxCell>
                <mxCell id="66" value="a hundred&lt;br style=&quot;font-size: 21px;&quot;&gt;b fifty&amp;nbsp;&lt;br style=&quot;font-size: 21px;&quot;&gt;c twenty&amp;nbsp;&lt;br style=&quot;font-size: 21px;&quot;&gt;d = 10&lt;br style=&quot;font-size: 21px;&quot;&gt;( i amount is not possible to give)" style="whiteSpace=wrap;html=1;fontSize=21;gradientColor=none;" vertex="1" parent="1">
                    <mxGeometry x="660" y="1200" width="150" height="200" as="geometry"/>
                </mxCell>
                <mxCell id="73" value="" style="edgeStyle=none;html=1;fontSize=21;" edge="1" parent="1" source="75" target="77">
                    <mxGeometry relative="1" as="geometry">
                        <Array as="points">
                            <mxPoint x="2070" y="915"/>
                        </Array>
                    </mxGeometry>
                </mxCell>
                <mxCell id="74" style="edgeStyle=none;html=1;entryX=0.5;entryY=0;entryDx=0;entryDy=0;fontSize=21;" edge="1" parent="1" source="75" target="78">
                    <mxGeometry relative="1" as="geometry"/>
                </mxCell>
                <mxCell id="75" value="i &amp;gt; = 10" style="shape=hexagon;perimeter=hexagonPerimeter2;whiteSpace=wrap;html=1;fixedSize=1;fontSize=21;gradientColor=none;" vertex="1" parent="1">
                    <mxGeometry x="1780" y="850" width="120" height="80" as="geometry"/>
                </mxCell>
                <mxCell id="76" value="" style="edgeStyle=none;html=1;fontSize=21;" edge="1" parent="1" source="77" target="78">
                    <mxGeometry relative="1" as="geometry">
                        <Array as="points">
                            <mxPoint x="2070" y="1145"/>
                        </Array>
                    </mxGeometry>
                </mxCell>
                <mxCell id="77" value="d = 1&amp;nbsp;&lt;br style=&quot;font-size: 21px;&quot;&gt;i = i -10" style="whiteSpace=wrap;html=1;fontSize=21;gradientColor=none;" vertex="1" parent="1">
                    <mxGeometry x="2020" y="985" width="120" height="60" as="geometry"/>
                </mxCell>
                <mxCell id="137" style="edgeStyle=none;html=1;fontSize=21;entryX=0.779;entryY=-0.011;entryDx=0;entryDy=0;entryPerimeter=0;" edge="1" parent="1" source="78" target="139">
                    <mxGeometry relative="1" as="geometry">
                        <mxPoint x="890" y="2150" as="targetPoint"/>
                    </mxGeometry>
                </mxCell>
                <mxCell id="78" value="a&amp;nbsp; hundred&lt;br style=&quot;font-size: 21px;&quot;&gt;b fifty&amp;nbsp;&lt;br style=&quot;font-size: 21px;&quot;&gt;c twenty&amp;nbsp;&lt;br style=&quot;font-size: 21px;&quot;&gt;d&amp;nbsp; ten&amp;nbsp;&amp;nbsp;&lt;br style=&quot;font-size: 21px;&quot;&gt;( i amount is not possible to give)" style="whiteSpace=wrap;html=1;fontSize=21;gradientColor=none;" vertex="1" parent="1">
                    <mxGeometry x="1800" y="1065" width="150" height="200" as="geometry"/>
                </mxCell>
                <mxCell id="79" value="" style="edgeStyle=none;html=1;fontSize=21;" edge="1" parent="1" source="81" target="83">
                    <mxGeometry relative="1" as="geometry">
                        <Array as="points">
                            <mxPoint x="1531" y="872.5"/>
                        </Array>
                    </mxGeometry>
                </mxCell>
                <mxCell id="80" style="edgeStyle=none;html=1;entryX=0.5;entryY=0;entryDx=0;entryDy=0;fontSize=21;" edge="1" parent="1" source="81" target="84">
                    <mxGeometry relative="1" as="geometry"/>
                </mxCell>
                <mxCell id="81" value="i &amp;gt; = 10" style="shape=hexagon;perimeter=hexagonPerimeter2;whiteSpace=wrap;html=1;fixedSize=1;fontSize=21;gradientColor=none;" vertex="1" parent="1">
                    <mxGeometry x="1241" y="807.5" width="120" height="80" as="geometry"/>
                </mxCell>
                <mxCell id="82" value="" style="edgeStyle=none;html=1;fontSize=21;" edge="1" parent="1" source="83" target="84">
                    <mxGeometry relative="1" as="geometry">
                        <Array as="points">
                            <mxPoint x="1531" y="1102.5"/>
                        </Array>
                    </mxGeometry>
                </mxCell>
                <mxCell id="83" value="d = 1&amp;nbsp;&lt;br style=&quot;font-size: 21px;&quot;&gt;i = i -10" style="whiteSpace=wrap;html=1;fontSize=21;gradientColor=none;" vertex="1" parent="1">
                    <mxGeometry x="1481" y="942.5" width="120" height="60" as="geometry"/>
                </mxCell>
                <mxCell id="136" style="edgeStyle=none;html=1;fontSize=21;entryX=0.644;entryY=0.004;entryDx=0;entryDy=0;entryPerimeter=0;" edge="1" parent="1" source="84" target="139">
                    <mxGeometry relative="1" as="geometry">
                        <mxPoint x="740" y="2150" as="targetPoint"/>
                    </mxGeometry>
                </mxCell>
                <mxCell id="84" value="a&amp;nbsp; hundred&lt;br style=&quot;font-size: 21px;&quot;&gt;b fifty&amp;nbsp;&lt;br style=&quot;font-size: 21px;&quot;&gt;c twenty&amp;nbsp;&lt;br style=&quot;font-size: 21px;&quot;&gt;d&amp;nbsp; ten&amp;nbsp;&amp;nbsp;&lt;br style=&quot;font-size: 21px;&quot;&gt;( i amount is not possible to give)" style="whiteSpace=wrap;html=1;fontSize=21;gradientColor=none;" vertex="1" parent="1">
                    <mxGeometry x="1226" y="1020" width="150" height="200" as="geometry"/>
                </mxCell>
                <mxCell id="86" value="" style="edgeStyle=none;html=1;fontSize=21;entryX=1;entryY=0.25;entryDx=0;entryDy=0;" edge="1" parent="1" source="87" target="94">
                    <mxGeometry relative="1" as="geometry">
                        <mxPoint x="-1270" y="752.5" as="targetPoint"/>
                    </mxGeometry>
                </mxCell>
                <mxCell id="125" style="edgeStyle=none;html=1;entryX=0.5;entryY=0;entryDx=0;entryDy=0;fontSize=21;" edge="1" parent="1" source="87" target="89">
                    <mxGeometry relative="1" as="geometry"/>
                </mxCell>
                <mxCell id="87" value="i &amp;gt; = 50" style="shape=hexagon;perimeter=hexagonPerimeter2;whiteSpace=wrap;html=1;fixedSize=1;fontSize=21;" vertex="1" parent="1">
                    <mxGeometry x="-850" y="490" width="120" height="80" as="geometry"/>
                </mxCell>
                <mxCell id="88" value="" style="edgeStyle=none;html=1;fontSize=21;" edge="1" parent="1" source="89" target="104">
                    <mxGeometry relative="1" as="geometry"/>
                </mxCell>
                <mxCell id="89" value="b = 1&lt;br style=&quot;font-size: 21px;&quot;&gt;i = i - 50&amp;nbsp;" style="whiteSpace=wrap;html=1;fontSize=21;" vertex="1" parent="1">
                    <mxGeometry x="-495" y="660" width="120" height="60" as="geometry"/>
                </mxCell>
                <mxCell id="92" style="edgeStyle=none;html=1;fontSize=21;entryX=0.558;entryY=0.017;entryDx=0;entryDy=0;entryPerimeter=0;" edge="1" parent="1" source="94" target="96">
                    <mxGeometry relative="1" as="geometry">
                        <mxPoint x="-1170" y="812.5" as="targetPoint"/>
                    </mxGeometry>
                </mxCell>
                <mxCell id="93" style="edgeStyle=none;html=1;fontSize=21;entryX=0.558;entryY=0;entryDx=0;entryDy=0;entryPerimeter=0;" edge="1" parent="1" source="94" target="99">
                    <mxGeometry relative="1" as="geometry">
                        <mxPoint x="-1450" y="832.5" as="targetPoint"/>
                    </mxGeometry>
                </mxCell>
                <mxCell id="94" value="i &amp;gt; = 20" style="shape=hexagon;perimeter=hexagonPerimeter2;whiteSpace=wrap;html=1;fixedSize=1;fontSize=21;gradientColor=none;" vertex="1" parent="1">
                    <mxGeometry x="-1380" y="732.5" width="120" height="80" as="geometry"/>
                </mxCell>
                <mxCell id="95" style="edgeStyle=none;html=1;entryX=0.5;entryY=0;entryDx=0;entryDy=0;fontSize=21;" edge="1" parent="1" source="96" target="109">
                    <mxGeometry relative="1" as="geometry"/>
                </mxCell>
                <mxCell id="96" value="c = 1&lt;br style=&quot;font-size: 21px;&quot;&gt;i = i - 20" style="whiteSpace=wrap;html=1;fontSize=21;gradientColor=none;" vertex="1" parent="1">
                    <mxGeometry x="-1270" y="1012.5" width="120" height="60" as="geometry"/>
                </mxCell>
                <mxCell id="97" value="" style="edgeStyle=none;html=1;fontSize=21;" edge="1" parent="1" source="99" target="101">
                    <mxGeometry relative="1" as="geometry">
                        <Array as="points">
                            <mxPoint x="-1430" y="1117.5"/>
                        </Array>
                    </mxGeometry>
                </mxCell>
                <mxCell id="98" style="edgeStyle=none;html=1;entryX=0.5;entryY=0;entryDx=0;entryDy=0;fontSize=21;" edge="1" parent="1" source="99" target="107">
                    <mxGeometry relative="1" as="geometry"/>
                </mxCell>
                <mxCell id="99" value="i &amp;gt; = 10" style="shape=hexagon;perimeter=hexagonPerimeter2;whiteSpace=wrap;html=1;fixedSize=1;fontSize=21;gradientColor=none;" vertex="1" parent="1">
                    <mxGeometry x="-1670" y="1067.5" width="120" height="80" as="geometry"/>
                </mxCell>
                <mxCell id="100" value="" style="edgeStyle=none;html=1;fontSize=21;" edge="1" parent="1" source="101" target="107">
                    <mxGeometry relative="1" as="geometry">
                        <Array as="points">
                            <mxPoint x="-1430" y="1347.5"/>
                        </Array>
                    </mxGeometry>
                </mxCell>
                <mxCell id="101" value="d = 1&amp;nbsp;&lt;br style=&quot;font-size: 21px;&quot;&gt;i = i -10" style="whiteSpace=wrap;html=1;fontSize=21;gradientColor=none;" vertex="1" parent="1">
                    <mxGeometry x="-1480" y="1187.5" width="120" height="60" as="geometry"/>
                </mxCell>
                <mxCell id="102" style="edgeStyle=none;html=1;fontSize=21;entryX=0.558;entryY=0.017;entryDx=0;entryDy=0;entryPerimeter=0;" edge="1" parent="1" source="104" target="106">
                    <mxGeometry relative="1" as="geometry">
                        <mxPoint x="-606" y="955" as="targetPoint"/>
                    </mxGeometry>
                </mxCell>
                <mxCell id="103" style="edgeStyle=none;html=1;entryX=0.625;entryY=0;entryDx=0;entryDy=0;fontSize=21;" edge="1" parent="1" source="104" target="121">
                    <mxGeometry relative="1" as="geometry"/>
                </mxCell>
                <mxCell id="104" value="i &amp;gt; = 20" style="shape=hexagon;perimeter=hexagonPerimeter2;whiteSpace=wrap;html=1;fixedSize=1;fontSize=21;gradientColor=none;" vertex="1" parent="1">
                    <mxGeometry x="-500" y="830" width="120" height="80" as="geometry"/>
                </mxCell>
                <mxCell id="105" value="" style="edgeStyle=none;html=1;fontSize=21;entryX=0.5;entryY=0;entryDx=0;entryDy=0;" edge="1" parent="1" source="106" target="115">
                    <mxGeometry relative="1" as="geometry">
                        <mxPoint x="-216" y="1110" as="targetPoint"/>
                    </mxGeometry>
                </mxCell>
                <mxCell id="106" value="c = 1&lt;br style=&quot;font-size: 21px;&quot;&gt;i = i - 20" style="whiteSpace=wrap;html=1;fontSize=21;gradientColor=none;" vertex="1" parent="1">
                    <mxGeometry x="-250" y="940" width="120" height="60" as="geometry"/>
                </mxCell>
                <mxCell id="130" style="edgeStyle=none;html=1;fontSize=21;entryX=0.158;entryY=-0.004;entryDx=0;entryDy=0;entryPerimeter=0;" edge="1" parent="1" source="107" target="139">
                    <mxGeometry relative="1" as="geometry">
                        <mxPoint x="290" y="2250" as="targetPoint"/>
                    </mxGeometry>
                </mxCell>
                <mxCell id="107" value="a hundred&lt;br style=&quot;font-size: 21px;&quot;&gt;b fifty&amp;nbsp;&lt;br style=&quot;font-size: 21px;&quot;&gt;c twenty&amp;nbsp;&lt;br style=&quot;font-size: 21px;&quot;&gt;d = 10&lt;br style=&quot;font-size: 21px;&quot;&gt;( i amount is not possible to give)" style="whiteSpace=wrap;html=1;fontSize=21;gradientColor=none;" vertex="1" parent="1">
                    <mxGeometry x="-1700" y="1267.5" width="150" height="200" as="geometry"/>
                </mxCell>
                <mxCell id="108" value="" style="edgeStyle=none;html=1;fontSize=21;" edge="1" parent="1" source="109" target="111">
                    <mxGeometry relative="1" as="geometry">
                        <Array as="points">
                            <mxPoint x="-1030" y="1172.5"/>
                        </Array>
                    </mxGeometry>
                </mxCell>
                <mxCell id="109" value="i &amp;gt; = 10" style="shape=hexagon;perimeter=hexagonPerimeter2;whiteSpace=wrap;html=1;fixedSize=1;fontSize=21;gradientColor=none;" vertex="1" parent="1">
                    <mxGeometry x="-1270" y="1122.5" width="120" height="80" as="geometry"/>
                </mxCell>
                <mxCell id="110" value="" style="edgeStyle=none;html=1;fontSize=21;" edge="1" parent="1" source="111" target="112">
                    <mxGeometry relative="1" as="geometry">
                        <Array as="points">
                            <mxPoint x="-1030" y="1402.5"/>
                        </Array>
                    </mxGeometry>
                </mxCell>
                <mxCell id="111" value="d = 1&amp;nbsp;&lt;br style=&quot;font-size: 21px;&quot;&gt;i = i -10" style="whiteSpace=wrap;html=1;fontSize=21;gradientColor=none;" vertex="1" parent="1">
                    <mxGeometry x="-1080" y="1242.5" width="120" height="60" as="geometry"/>
                </mxCell>
                <mxCell id="131" style="edgeStyle=none;html=1;fontSize=21;entryX=0.309;entryY=-0.004;entryDx=0;entryDy=0;entryPerimeter=0;" edge="1" parent="1" source="112" target="139">
                    <mxGeometry relative="1" as="geometry">
                        <mxPoint x="357.1999999999998" y="2154" as="targetPoint"/>
                    </mxGeometry>
                </mxCell>
                <mxCell id="112" value="a hundred&lt;br style=&quot;font-size: 21px;&quot;&gt;b fifty&amp;nbsp;&lt;br style=&quot;font-size: 21px;&quot;&gt;c twenty&amp;nbsp;&lt;br style=&quot;font-size: 21px;&quot;&gt;d = 10&lt;br style=&quot;font-size: 21px;&quot;&gt;( i amount is not possible to give)" style="whiteSpace=wrap;html=1;fontSize=21;gradientColor=none;" vertex="1" parent="1">
                    <mxGeometry x="-1300" y="1322.5" width="150" height="200" as="geometry"/>
                </mxCell>
                <mxCell id="113" value="" style="edgeStyle=none;html=1;fontSize=21;" edge="1" parent="1" source="115" target="117">
                    <mxGeometry relative="1" as="geometry">
                        <Array as="points">
                            <mxPoint x="94" y="1175"/>
                        </Array>
                    </mxGeometry>
                </mxCell>
                <mxCell id="114" style="edgeStyle=none;html=1;entryX=0.5;entryY=0;entryDx=0;entryDy=0;fontSize=21;" edge="1" parent="1" source="115" target="118">
                    <mxGeometry relative="1" as="geometry"/>
                </mxCell>
                <mxCell id="115" value="i &amp;gt; = 10" style="shape=hexagon;perimeter=hexagonPerimeter2;whiteSpace=wrap;html=1;fixedSize=1;fontSize=21;gradientColor=none;" vertex="1" parent="1">
                    <mxGeometry x="-196" y="1110" width="120" height="80" as="geometry"/>
                </mxCell>
                <mxCell id="116" value="" style="edgeStyle=none;html=1;fontSize=21;" edge="1" parent="1" source="117" target="118">
                    <mxGeometry relative="1" as="geometry">
                        <Array as="points">
                            <mxPoint x="94" y="1405"/>
                        </Array>
                    </mxGeometry>
                </mxCell>
                <mxCell id="117" value="d = 1&amp;nbsp;&lt;br style=&quot;font-size: 21px;&quot;&gt;i = i -10" style="whiteSpace=wrap;html=1;fontSize=21;gradientColor=none;" vertex="1" parent="1">
                    <mxGeometry x="44" y="1245" width="120" height="60" as="geometry"/>
                </mxCell>
                <mxCell id="133" style="edgeStyle=none;html=1;fontSize=21;" edge="1" parent="1" source="118" target="139">
                    <mxGeometry relative="1" as="geometry">
                        <mxPoint x="506.242424242424" y="2150" as="targetPoint"/>
                    </mxGeometry>
                </mxCell>
                <mxCell id="118" value="a&amp;nbsp; hundred&lt;br style=&quot;font-size: 21px;&quot;&gt;b fifty&amp;nbsp;&lt;br style=&quot;font-size: 21px;&quot;&gt;c twenty&amp;nbsp;&lt;br style=&quot;font-size: 21px;&quot;&gt;d&amp;nbsp; ten&amp;nbsp;&amp;nbsp;&lt;br style=&quot;font-size: 21px;&quot;&gt;( i amount is not possible to give)" style="whiteSpace=wrap;html=1;fontSize=21;gradientColor=none;" vertex="1" parent="1">
                    <mxGeometry x="-176" y="1325" width="150" height="200" as="geometry"/>
                </mxCell>
                <mxCell id="119" value="" style="edgeStyle=none;html=1;fontSize=21;" edge="1" parent="1" source="121" target="123">
                    <mxGeometry relative="1" as="geometry">
                        <Array as="points">
                            <mxPoint x="-445" y="1132.5"/>
                        </Array>
                    </mxGeometry>
                </mxCell>
                <mxCell id="120" style="edgeStyle=none;html=1;entryX=0.5;entryY=0;entryDx=0;entryDy=0;fontSize=21;" edge="1" parent="1" source="121" target="124">
                    <mxGeometry relative="1" as="geometry"/>
                </mxCell>
                <mxCell id="121" value="i &amp;gt; = 10" style="shape=hexagon;perimeter=hexagonPerimeter2;whiteSpace=wrap;html=1;fixedSize=1;fontSize=21;gradientColor=none;" vertex="1" parent="1">
                    <mxGeometry x="-735" y="1067.5" width="120" height="80" as="geometry"/>
                </mxCell>
                <mxCell id="122" value="" style="edgeStyle=none;html=1;fontSize=21;" edge="1" parent="1" source="123" target="124">
                    <mxGeometry relative="1" as="geometry">
                        <Array as="points">
                            <mxPoint x="-445" y="1362.5"/>
                        </Array>
                    </mxGeometry>
                </mxCell>
                <mxCell id="123" value="d = 1&amp;nbsp;&lt;br style=&quot;font-size: 21px;&quot;&gt;i = i -10" style="whiteSpace=wrap;html=1;fontSize=21;gradientColor=none;" vertex="1" parent="1">
                    <mxGeometry x="-495" y="1202.5" width="120" height="60" as="geometry"/>
                </mxCell>
                <mxCell id="132" style="edgeStyle=none;html=1;fontSize=21;entryX=0.375;entryY=0;entryDx=0;entryDy=0;" edge="1" parent="1" source="124" target="139">
                    <mxGeometry relative="1" as="geometry">
                        <mxPoint x="540.8000000000002" y="2150" as="targetPoint"/>
                    </mxGeometry>
                </mxCell>
                <mxCell id="124" value="a&amp;nbsp; hundred&lt;br style=&quot;font-size: 21px;&quot;&gt;b fifty&amp;nbsp;&lt;br style=&quot;font-size: 21px;&quot;&gt;c twenty&amp;nbsp;&lt;br style=&quot;font-size: 21px;&quot;&gt;d&amp;nbsp; ten&amp;nbsp;&amp;nbsp;&lt;br style=&quot;font-size: 21px;&quot;&gt;( i amount is not possible to give)" style="whiteSpace=wrap;html=1;fontSize=21;gradientColor=none;" vertex="1" parent="1">
                    <mxGeometry x="-750" y="1280" width="150" height="200" as="geometry"/>
                </mxCell>
                <mxCell id="129" style="edgeStyle=none;html=1;entryX=1;entryY=0.5;entryDx=0;entryDy=0;fontSize=21;" edge="1" parent="1" source="128" target="87">
                    <mxGeometry relative="1" as="geometry"/>
                </mxCell>
                <mxCell id="128" value="a = 1&lt;br style=&quot;font-size: 21px;&quot;&gt;i = i -100" style="whiteSpace=wrap;html=1;fontSize=21;gradientColor=none;" vertex="1" parent="1">
                    <mxGeometry x="-230" y="490" width="120" height="60" as="geometry"/>
                </mxCell>
                <mxCell id="141" value="" style="edgeStyle=none;html=1;fontSize=21;exitX=1;exitY=0.5;exitDx=0;exitDy=0;" edge="1" parent="1" source="139" target="140">
                    <mxGeometry relative="1" as="geometry">
                        <mxPoint x="1016.5188155459591" y="1912.285626156693" as="sourcePoint"/>
                    </mxGeometry>
                </mxCell>
                <mxCell id="222" value="" style="edgeStyle=none;html=1;fontSize=21;" edge="1" parent="1" source="139" target="221">
                    <mxGeometry relative="1" as="geometry"/>
                </mxCell>
                <mxCell id="139" value="e &amp;gt; = a" style="shape=hexagon;perimeter=hexagonPerimeter2;whiteSpace=wrap;html=1;fixedSize=1;fontSize=21;gradientColor=none;spacing=3;fontStyle=1;horizontal=1;" vertex="1" parent="1">
                    <mxGeometry x="-10" y="1770" width="260" height="190" as="geometry"/>
                </mxCell>
                <mxCell id="143" value="" style="edgeStyle=none;html=1;fontSize=21;" edge="1" parent="1" source="140" target="142">
                    <mxGeometry relative="1" as="geometry"/>
                </mxCell>
                <mxCell id="184" value="" style="edgeStyle=none;html=1;fontSize=21;" edge="1" parent="1" source="140" target="183">
                    <mxGeometry relative="1" as="geometry"/>
                </mxCell>
                <mxCell id="140" value="f &amp;gt; = b" style="shape=hexagon;perimeter=hexagonPerimeter2;whiteSpace=wrap;html=1;fixedSize=1;fontSize=21;gradientColor=none;spacing=3;fontStyle=1;" vertex="1" parent="1">
                    <mxGeometry x="847" y="1825" width="120" height="80" as="geometry"/>
                </mxCell>
                <mxCell id="145" value="" style="edgeStyle=none;html=1;fontSize=21;" edge="1" parent="1" source="142" target="144">
                    <mxGeometry relative="1" as="geometry"/>
                </mxCell>
                <mxCell id="156" value="" style="edgeStyle=none;html=1;fontSize=21;" edge="1" parent="1" source="142" target="155">
                    <mxGeometry relative="1" as="geometry"/>
                </mxCell>
                <mxCell id="142" value="g &amp;gt; = c" style="shape=hexagon;perimeter=hexagonPerimeter2;whiteSpace=wrap;html=1;fixedSize=1;fontSize=21;gradientColor=none;spacing=3;fontStyle=1;" vertex="1" parent="1">
                    <mxGeometry x="1857" y="1877" width="120" height="80" as="geometry"/>
                </mxCell>
                <mxCell id="147" value="" style="edgeStyle=none;html=1;fontSize=21;" edge="1" parent="1" source="144" target="146">
                    <mxGeometry relative="1" as="geometry"/>
                </mxCell>
                <mxCell id="151" value="" style="edgeStyle=none;html=1;fontSize=21;entryX=0.5;entryY=0;entryDx=0;entryDy=0;" edge="1" parent="1" source="144" target="152">
                    <mxGeometry relative="1" as="geometry">
                        <mxPoint x="1968" y="2042.0000000000005" as="targetPoint"/>
                        <Array as="points"/>
                    </mxGeometry>
                </mxCell>
                <mxCell id="144" value="h &amp;gt; = d" style="shape=hexagon;perimeter=hexagonPerimeter2;whiteSpace=wrap;html=1;fixedSize=1;fontSize=21;gradientColor=none;spacing=3;fontStyle=1;" vertex="1" parent="1">
                    <mxGeometry x="2427" y="1895" width="120" height="80" as="geometry"/>
                </mxCell>
                <mxCell id="170" value="" style="edgeStyle=none;html=1;fontSize=21;" edge="1" parent="1" source="146" target="169">
                    <mxGeometry relative="1" as="geometry">
                        <Array as="points"/>
                    </mxGeometry>
                </mxCell>
                <mxCell id="146" value="&lt;font style=&quot;font-size: 21px;&quot;&gt;cash out a 100 b 50 c 20 d 10&lt;/font&gt;" style="whiteSpace=wrap;html=1;fontSize=21;gradientColor=none;spacing=3;fontStyle=1;" vertex="1" parent="1">
                    <mxGeometry x="2563.5" y="2023" width="169" height="95" as="geometry"/>
                </mxCell>
                <mxCell id="154" value="" style="edgeStyle=none;html=1;fontSize=21;" edge="1" parent="1" source="152" target="153">
                    <mxGeometry relative="1" as="geometry"/>
                </mxCell>
                <mxCell id="152" value="cash out a 100 b 50 c 20 and print ( d amount of 10 notes are no longer at atm)" style="whiteSpace=wrap;html=1;fontSize=21;gradientColor=none;" vertex="1" parent="1">
                    <mxGeometry x="2263" y="1992" width="194" height="149" as="geometry"/>
                </mxCell>
                <mxCell id="171" style="edgeStyle=none;html=1;fontSize=21;entryX=0.525;entryY=-0.009;entryDx=0;entryDy=0;entryPerimeter=0;" edge="1" parent="1" source="153" target="172">
                    <mxGeometry relative="1" as="geometry"/>
                </mxCell>
                <mxCell id="153" value="send bank order to refill atm with 10 notes" style="whiteSpace=wrap;html=1;fontSize=21;gradientColor=none;" vertex="1" parent="1">
                    <mxGeometry x="2311" y="2166" width="154" height="106" as="geometry"/>
                </mxCell>
                <mxCell id="159" value="" style="edgeStyle=none;html=1;fontSize=21;exitX=1;exitY=0.5;exitDx=0;exitDy=0;entryX=0;entryY=0.5;entryDx=0;entryDy=0;" edge="1" parent="1" source="155" target="158">
                    <mxGeometry relative="1" as="geometry">
                        <Array as="points">
                            <mxPoint x="2147" y="2082"/>
                        </Array>
                    </mxGeometry>
                </mxCell>
                <mxCell id="162" value="" style="edgeStyle=none;html=1;fontSize=21;" edge="1" parent="1" source="155" target="161">
                    <mxGeometry relative="1" as="geometry"/>
                </mxCell>
                <mxCell id="155" value="&lt;font style=&quot;font-size: 21px;&quot;&gt;&amp;nbsp;0 &amp;gt; = h - (d+(2*c))&lt;/font&gt;" style="shape=hexagon;perimeter=hexagonPerimeter2;whiteSpace=wrap;html=1;fixedSize=1;fontSize=21;gradientColor=none;spacing=3;fontStyle=1;" vertex="1" parent="1">
                    <mxGeometry x="1806.5" y="1991" width="230" height="60" as="geometry"/>
                </mxCell>
                <mxCell id="174" style="edgeStyle=none;html=1;entryX=0.446;entryY=0.001;entryDx=0;entryDy=0;fontSize=21;entryPerimeter=0;" edge="1" parent="1" target="173">
                    <mxGeometry relative="1" as="geometry">
                        <mxPoint x="2146" y="2407" as="sourcePoint"/>
                    </mxGeometry>
                </mxCell>
                <mxCell id="158" value="cash out a 100 b 50 (c*2)+d amount of 10" style="whiteSpace=wrap;html=1;fontSize=21;gradientColor=none;spacing=3;fontStyle=1;direction=south;" vertex="1" parent="1">
                    <mxGeometry x="2077" y="2254" width="139" height="158.5" as="geometry"/>
                </mxCell>
                <mxCell id="178" value="" style="edgeStyle=none;html=1;fontSize=21;" edge="1" parent="1" source="161" target="177">
                    <mxGeometry relative="1" as="geometry"/>
                </mxCell>
                <mxCell id="161" value="print on screen only a*100+b*50 is possible at the moment" style="whiteSpace=wrap;html=1;fontSize=21;gradientColor=none;spacing=3;fontStyle=1;" vertex="1" parent="1">
                    <mxGeometry x="1861" y="2091" width="124" height="161" as="geometry"/>
                </mxCell>
                <mxCell id="165" style="edgeStyle=none;html=1;entryX=0.5;entryY=0;entryDx=0;entryDy=0;fontSize=21;" edge="1" parent="1" source="163" target="6">
                    <mxGeometry relative="1" as="geometry"/>
                </mxCell>
                <mxCell id="163" value="pull Data box" style="whiteSpace=wrap;html=1;fontSize=21;gradientColor=none;" vertex="1" parent="1">
                    <mxGeometry x="340" y="220" width="120" height="60" as="geometry"/>
                </mxCell>
                <mxCell id="167" style="edgeStyle=none;html=1;exitX=0;exitY=0.5;exitDx=0;exitDy=0;entryX=1;entryY=0.5;entryDx=0;entryDy=0;fontSize=21;" edge="1" parent="1" source="166" target="163">
                    <mxGeometry relative="1" as="geometry"/>
                </mxCell>
                <mxCell id="166" value="&lt;br style=&quot;font-size: 21px;&quot;&gt;Data box&lt;br style=&quot;font-size: 21px;&quot;&gt;&lt;span style=&quot;color: rgb(240, 240, 240); font-family: helvetica; font-size: 21px; font-style: normal; font-weight: 400; letter-spacing: normal; text-align: center; text-indent: 0px; text-transform: none; word-spacing: 0px; background-color: rgb(42, 42, 42); display: inline; float: none;&quot;&gt;e = Number of bank notes in hundred&lt;/span&gt;&lt;br style=&quot;color: rgb(240, 240, 240); font-family: helvetica; font-size: 21px; font-style: normal; font-weight: 400; letter-spacing: normal; text-align: center; text-indent: 0px; text-transform: none; word-spacing: 0px; background-color: rgb(42, 42, 42);&quot;&gt;&lt;span style=&quot;color: rgb(240, 240, 240); font-family: helvetica; font-size: 21px; font-style: normal; font-weight: 400; letter-spacing: normal; text-align: center; text-indent: 0px; text-transform: none; word-spacing: 0px; background-color: rgb(42, 42, 42); display: inline; float: none;&quot;&gt;f = number of bank notes in 50&lt;/span&gt;&lt;br style=&quot;color: rgb(240, 240, 240); font-family: helvetica; font-size: 21px; font-style: normal; font-weight: 400; letter-spacing: normal; text-align: center; text-indent: 0px; text-transform: none; word-spacing: 0px; background-color: rgb(42, 42, 42);&quot;&gt;&lt;span style=&quot;color: rgb(240, 240, 240); font-family: helvetica; font-size: 21px; font-style: normal; font-weight: 400; letter-spacing: normal; text-align: center; text-indent: 0px; text-transform: none; word-spacing: 0px; background-color: rgb(42, 42, 42); display: inline; float: none;&quot;&gt;g = number of bank notes in 20&lt;/span&gt;&lt;br style=&quot;color: rgb(240, 240, 240); font-family: helvetica; font-size: 21px; font-style: normal; font-weight: 400; letter-spacing: normal; text-align: center; text-indent: 0px; text-transform: none; word-spacing: 0px; background-color: rgb(42, 42, 42);&quot;&gt;&lt;span style=&quot;color: rgb(240, 240, 240); font-family: helvetica; font-size: 21px; font-style: normal; font-weight: 400; letter-spacing: normal; text-align: center; text-indent: 0px; text-transform: none; word-spacing: 0px; background-color: rgb(42, 42, 42); display: inline; float: none;&quot;&gt;h = number of bank notes 10&lt;/span&gt;&lt;br style=&quot;font-size: 21px;&quot;&gt;" style="rounded=1;whiteSpace=wrap;html=1;fontSize=21;gradientColor=none;" vertex="1" parent="1">
                    <mxGeometry x="670" y="140" width="350" height="220" as="geometry"/>
                </mxCell>
                <mxCell id="318" style="edgeStyle=none;html=1;fontSize=21;" edge="1" parent="1" source="169" target="314">
                    <mxGeometry relative="1" as="geometry">
                        <Array as="points">
                            <mxPoint x="2240" y="5053"/>
                        </Array>
                    </mxGeometry>
                </mxCell>
                <mxCell id="169" value="&lt;font style=&quot;font-size: 21px;&quot;&gt;e = e -a&lt;br style=&quot;font-size: 21px;&quot;&gt;f = f - b&lt;br style=&quot;font-size: 21px;&quot;&gt;g = g- c&lt;br style=&quot;font-size: 21px;&quot;&gt;h = h-d&lt;br style=&quot;font-size: 21px;&quot;&gt;send data back to data box&lt;br style=&quot;font-size: 21px;&quot;&gt;&lt;br style=&quot;font-size: 21px;&quot;&gt;&lt;/font&gt;" style="whiteSpace=wrap;html=1;fontSize=21;gradientColor=none;spacing=3;fontStyle=1;" vertex="1" parent="1">
                    <mxGeometry x="2570.5" y="2640" width="155" height="280" as="geometry"/>
                </mxCell>
                <mxCell id="317" style="edgeStyle=none;html=1;fontSize=21;" edge="1" parent="1" source="172" target="314">
                    <mxGeometry relative="1" as="geometry">
                        <Array as="points">
                            <mxPoint x="2074" y="4833"/>
                        </Array>
                    </mxGeometry>
                </mxCell>
                <mxCell id="172" value="&lt;font style=&quot;font-size: 21px;&quot;&gt;e = e -a&lt;br style=&quot;font-size: 21px;&quot;&gt;f = f - b&amp;nbsp;&lt;br style=&quot;font-size: 21px;&quot;&gt;g = g- c&amp;nbsp;&lt;br style=&quot;font-size: 21px;&quot;&gt;h = 0&lt;br style=&quot;font-size: 21px;&quot;&gt;send data back to data box&lt;br style=&quot;font-size: 21px;&quot;&gt;&lt;br style=&quot;font-size: 21px;&quot;&gt;&lt;/font&gt;" style="whiteSpace=wrap;html=1;fontSize=21;gradientColor=none;spacing=3;fontStyle=1;" vertex="1" parent="1">
                    <mxGeometry x="2277" y="2647" width="180" height="280" as="geometry"/>
                </mxCell>
                <mxCell id="316" style="edgeStyle=none;html=1;entryX=0.75;entryY=0;entryDx=0;entryDy=0;fontSize=21;" edge="1" parent="1" source="173" target="314">
                    <mxGeometry relative="1" as="geometry">
                        <Array as="points">
                            <mxPoint x="1974" y="4733"/>
                        </Array>
                    </mxGeometry>
                </mxCell>
                <mxCell id="173" value="&lt;font style=&quot;font-size: 21px;&quot;&gt;e = e -a&lt;br style=&quot;font-size: 21px;&quot;&gt;f = f - b&lt;br style=&quot;font-size: 21px;&quot;&gt;g = 0&lt;br style=&quot;font-size: 21px;&quot;&gt;h = h-d&lt;br style=&quot;font-size: 21px;&quot;&gt;send data back to data box&lt;br style=&quot;font-size: 21px;&quot;&gt;&lt;br style=&quot;font-size: 21px;&quot;&gt;&lt;/font&gt;" style="whiteSpace=wrap;html=1;fontSize=21;gradientColor=none;spacing=3;fontStyle=1;" vertex="1" parent="1">
                    <mxGeometry x="2077" y="2637" width="155" height="280" as="geometry"/>
                </mxCell>
                <mxCell id="180" value="" style="edgeStyle=none;html=1;fontSize=21;" edge="1" parent="1" source="177" target="179">
                    <mxGeometry relative="1" as="geometry"/>
                </mxCell>
                <mxCell id="177" value="send bank refill order of 20 and 10" style="whiteSpace=wrap;html=1;fontSize=21;gradientColor=none;spacing=3;fontStyle=1;" vertex="1" parent="1">
                    <mxGeometry x="1847" y="2300" width="140" height="95" as="geometry"/>
                </mxCell>
                <mxCell id="182" style="edgeStyle=none;html=1;entryX=0.5;entryY=0;entryDx=0;entryDy=0;fontSize=21;" edge="1" parent="1" source="179" target="181">
                    <mxGeometry relative="1" as="geometry"/>
                </mxCell>
                <mxCell id="179" value="cash out a 100 b 50" style="whiteSpace=wrap;html=1;fontSize=21;gradientColor=none;spacing=3;fontStyle=1;" vertex="1" parent="1">
                    <mxGeometry x="1857" y="2492.5" width="120" height="60" as="geometry"/>
                </mxCell>
                <mxCell id="315" style="edgeStyle=none;html=1;fontSize=21;" edge="1" parent="1" source="181" target="314">
                    <mxGeometry relative="1" as="geometry">
                        <mxPoint x="1653.6666666666679" y="4573.333333333334" as="targetPoint"/>
                        <Array as="points">
                            <mxPoint x="1660" y="4400"/>
                        </Array>
                    </mxGeometry>
                </mxCell>
                <mxCell id="181" value="&lt;font style=&quot;font-size: 21px;&quot;&gt;e = e -a&lt;br style=&quot;font-size: 21px;&quot;&gt;f = f - b&lt;br style=&quot;font-size: 21px;&quot;&gt;g = 0&lt;br style=&quot;font-size: 21px;&quot;&gt;h = h-d&lt;br style=&quot;font-size: 21px;&quot;&gt;send data back to data box&lt;br style=&quot;font-size: 21px;&quot;&gt;&lt;br style=&quot;font-size: 21px;&quot;&gt;&lt;/font&gt;" style="whiteSpace=wrap;html=1;fontSize=21;gradientColor=none;spacing=3;fontStyle=1;" vertex="1" parent="1">
                    <mxGeometry x="1839.5" y="2607" width="155" height="280" as="geometry"/>
                </mxCell>
                <mxCell id="189" value="" style="edgeStyle=none;html=1;fontSize=21;" edge="1" parent="1" source="183" target="188">
                    <mxGeometry relative="1" as="geometry"/>
                </mxCell>
                <mxCell id="199" value="" style="edgeStyle=none;html=1;fontSize=21;" edge="1" parent="1" source="183" target="198">
                    <mxGeometry relative="1" as="geometry"/>
                </mxCell>
                <mxCell id="183" value="50 &amp;gt;= (2g*20)+(h *10)" style="shape=hexagon;perimeter=hexagonPerimeter2;whiteSpace=wrap;html=1;fixedSize=1;fontSize=21;gradientColor=none;spacing=3;fontStyle=1;" vertex="1" parent="1">
                    <mxGeometry x="1157" y="2079" width="288" height="112" as="geometry"/>
                </mxCell>
                <mxCell id="193" value="" style="edgeStyle=none;html=1;fontSize=21;" edge="1" parent="1" source="188" target="192">
                    <mxGeometry relative="1" as="geometry"/>
                </mxCell>
                <mxCell id="188" value="print on screen only a 100 and b*2g 20 notes b*h 10 notes possible" style="whiteSpace=wrap;html=1;fontSize=21;gradientColor=none;spacing=3;fontStyle=1;" vertex="1" parent="1">
                    <mxGeometry x="1525" y="2256" width="232" height="227" as="geometry"/>
                </mxCell>
                <mxCell id="195" style="edgeStyle=none;html=1;entryX=0.5;entryY=0;entryDx=0;entryDy=0;fontSize=21;" edge="1" parent="1" source="192" target="194">
                    <mxGeometry relative="1" as="geometry"/>
                </mxCell>
                <mxCell id="192" value="cash out&lt;br style=&quot;font-size: 21px;&quot;&gt;&amp;nbsp; a 100&lt;br style=&quot;font-size: 21px;&quot;&gt;&amp;nbsp;b*2g 20&lt;br style=&quot;font-size: 21px;&quot;&gt;h 10" style="whiteSpace=wrap;html=1;fontSize=21;gradientColor=none;spacing=3;fontStyle=1;" vertex="1" parent="1">
                    <mxGeometry x="1555" y="2521" width="184" height="181.5" as="geometry"/>
                </mxCell>
                <mxCell id="313" style="edgeStyle=none;html=1;fontSize=21;entryX=0.5;entryY=0;entryDx=0;entryDy=0;" edge="1" parent="1" source="194" target="314">
                    <mxGeometry relative="1" as="geometry">
                        <mxPoint x="593.6666666666679" y="4600" as="targetPoint"/>
                        <Array as="points">
                            <mxPoint x="1387" y="4333"/>
                        </Array>
                    </mxGeometry>
                </mxCell>
                <mxCell id="194" value="&lt;font style=&quot;font-size: 21px;&quot;&gt;e = e -a&lt;br style=&quot;font-size: 21px;&quot;&gt;f = 0&lt;br style=&quot;font-size: 21px;&quot;&gt;g = 0&lt;br style=&quot;font-size: 21px;&quot;&gt;h = h-d&lt;br style=&quot;font-size: 21px;&quot;&gt;send data back to data box&lt;br style=&quot;font-size: 21px;&quot;&gt;&lt;br style=&quot;font-size: 21px;&quot;&gt;&lt;/font&gt;" style="whiteSpace=wrap;html=1;fontSize=21;gradientColor=none;spacing=3;fontStyle=1;" vertex="1" parent="1">
                    <mxGeometry x="1574" y="2741" width="155" height="280" as="geometry"/>
                </mxCell>
                <mxCell id="201" value="" style="edgeStyle=none;html=1;fontSize=21;" edge="1" parent="1" source="198" target="200">
                    <mxGeometry relative="1" as="geometry"/>
                </mxCell>
                <mxCell id="208" value="" style="edgeStyle=none;html=1;fontSize=21;" edge="1" parent="1" source="198" target="207">
                    <mxGeometry relative="1" as="geometry"/>
                </mxCell>
                <mxCell id="198" value="50 &amp;gt;= 5h" style="shape=hexagon;perimeter=hexagonPerimeter2;whiteSpace=wrap;html=1;fixedSize=1;fontSize=21;gradientColor=none;spacing=3;fontStyle=1;" vertex="1" parent="1">
                    <mxGeometry x="843" y="2322.5" width="285" height="138" as="geometry"/>
                </mxCell>
                <mxCell id="203" value="" style="edgeStyle=none;html=1;fontSize=21;" edge="1" parent="1" source="200" target="202">
                    <mxGeometry relative="1" as="geometry"/>
                </mxCell>
                <mxCell id="200" value="print on screen only a 100 and b*5h 10 notes are possible" style="whiteSpace=wrap;html=1;fontSize=21;gradientColor=none;spacing=3;fontStyle=1;" vertex="1" parent="1">
                    <mxGeometry x="1227" y="2523.5" width="178" height="281.5" as="geometry"/>
                </mxCell>
                <mxCell id="210" value="" style="edgeStyle=none;html=1;fontSize=21;entryX=0.5;entryY=0;entryDx=0;entryDy=0;" edge="1" parent="1" source="202" target="205">
                    <mxGeometry relative="1" as="geometry">
                        <mxPoint x="1310" y="3255.625" as="targetPoint"/>
                    </mxGeometry>
                </mxCell>
                <mxCell id="202" value="cash out a 100&lt;br style=&quot;font-size: 21px;&quot;&gt;b*5h 10" style="whiteSpace=wrap;html=1;fontSize=21;gradientColor=none;spacing=3;fontStyle=1;" vertex="1" parent="1">
                    <mxGeometry x="1218" y="2858" width="184" height="231.75" as="geometry"/>
                </mxCell>
                <mxCell id="311" style="edgeStyle=none;html=1;entryX=0.5;entryY=0;entryDx=0;entryDy=0;fontSize=21;" edge="1" parent="1" source="205" target="314">
                    <mxGeometry relative="1" as="geometry">
                        <mxPoint x="161.1200000000008" y="4619.869999999999" as="targetPoint"/>
                    </mxGeometry>
                </mxCell>
                <mxCell id="205" value="&lt;font style=&quot;font-size: 21px;&quot;&gt;e = e -a&lt;br style=&quot;font-size: 21px;&quot;&gt;f = f - b&lt;br style=&quot;font-size: 21px;&quot;&gt;g = 0&lt;br style=&quot;font-size: 21px;&quot;&gt;h = h-d&lt;br style=&quot;font-size: 21px;&quot;&gt;send data back to data box&lt;br style=&quot;font-size: 21px;&quot;&gt;&lt;br style=&quot;font-size: 21px;&quot;&gt;&lt;/font&gt;" style="whiteSpace=wrap;html=1;fontSize=21;gradientColor=none;spacing=3;fontStyle=1;" vertex="1" parent="1">
                    <mxGeometry x="1243" y="3259" width="155" height="280" as="geometry"/>
                </mxCell>
                <mxCell id="213" value="" style="edgeStyle=none;html=1;fontSize=21;" edge="1" parent="1" source="207" target="212">
                    <mxGeometry relative="1" as="geometry"/>
                </mxCell>
                <mxCell id="207" value="pring &quot; we dont have 50 notes&quot;" style="whiteSpace=wrap;html=1;fontSize=21;gradientColor=none;spacing=3;fontStyle=1;" vertex="1" parent="1">
                    <mxGeometry x="479" y="2488" width="268" height="136" as="geometry"/>
                </mxCell>
                <mxCell id="216" value="" style="edgeStyle=none;html=1;fontSize=21;" edge="1" parent="1" source="212" target="215">
                    <mxGeometry relative="1" as="geometry"/>
                </mxCell>
                <mxCell id="212" value="send bank refill order of 50 , 20 , 10 notes" style="whiteSpace=wrap;html=1;fontSize=21;gradientColor=none;spacing=3;fontStyle=1;" vertex="1" parent="1">
                    <mxGeometry x="479" y="2704" width="254" height="146" as="geometry"/>
                </mxCell>
                <mxCell id="218" style="edgeStyle=none;html=1;entryX=0.5;entryY=0;entryDx=0;entryDy=0;fontSize=21;" edge="1" parent="1" source="215" target="217">
                    <mxGeometry relative="1" as="geometry"/>
                </mxCell>
                <mxCell id="215" value="cash out a 100" style="whiteSpace=wrap;html=1;fontSize=21;gradientColor=none;spacing=3;fontStyle=1;" vertex="1" parent="1">
                    <mxGeometry x="458" y="2973" width="288" height="130" as="geometry"/>
                </mxCell>
                <mxCell id="312" style="edgeStyle=none;html=1;entryX=0.5;entryY=0;entryDx=0;entryDy=0;fontSize=21;" edge="1" parent="1" source="217" target="314">
                    <mxGeometry relative="1" as="geometry">
                        <mxPoint x="140" y="4617" as="targetPoint"/>
                    </mxGeometry>
                </mxCell>
                <mxCell id="217" value="&lt;font style=&quot;font-size: 21px;&quot;&gt;e = e -a&lt;br style=&quot;font-size: 21px;&quot;&gt;f = f - b&lt;br style=&quot;font-size: 21px;&quot;&gt;g = 0&lt;br style=&quot;font-size: 21px;&quot;&gt;h = h-d&lt;br style=&quot;font-size: 21px;&quot;&gt;send data back to data box&lt;br style=&quot;font-size: 21px;&quot;&gt;&lt;br style=&quot;font-size: 21px;&quot;&gt;&lt;/font&gt;" style="whiteSpace=wrap;html=1;fontSize=21;gradientColor=none;spacing=3;fontStyle=1;" vertex="1" parent="1">
                    <mxGeometry x="524.5" y="3205" width="155" height="280" as="geometry"/>
                </mxCell>
                <mxCell id="226" value="" style="edgeStyle=none;html=1;fontSize=21;" edge="1" parent="1" source="221" target="225">
                    <mxGeometry relative="1" as="geometry"/>
                </mxCell>
                <mxCell id="321" style="edgeStyle=none;html=1;fontSize=21;" edge="1" parent="1" source="221">
                    <mxGeometry relative="1" as="geometry">
                        <mxPoint x="-3948" y="2924" as="targetPoint"/>
                        <Array as="points">
                            <mxPoint x="-3512" y="2020"/>
                        </Array>
                    </mxGeometry>
                </mxCell>
                <mxCell id="221" value="0 &amp;gt;= b-a*2b" style="shape=hexagon;perimeter=hexagonPerimeter2;whiteSpace=wrap;html=1;fixedSize=1;fontSize=21;gradientColor=none;spacing=3;fontStyle=1;" vertex="1" parent="1">
                    <mxGeometry x="-2191" y="1782" width="434" height="217" as="geometry"/>
                </mxCell>
                <mxCell id="280" style="edgeStyle=none;html=1;entryX=0.5;entryY=0;entryDx=0;entryDy=0;fontSize=21;exitX=1;exitY=0.5;exitDx=0;exitDy=0;" edge="1" parent="1" source="281" target="255">
                    <mxGeometry relative="1" as="geometry"/>
                </mxCell>
                <mxCell id="283" style="edgeStyle=none;html=1;entryX=0.5;entryY=0;entryDx=0;entryDy=0;fontSize=21;" edge="1" parent="1" source="225" target="281">
                    <mxGeometry relative="1" as="geometry"/>
                </mxCell>
                <mxCell id="225" value="print we dont have 100 notes&lt;br style=&quot;font-size: 21px&quot;&gt;send refill order of 100 notes to bank&lt;br style=&quot;font-size: 21px&quot;&gt;&lt;br style=&quot;font-size: 21px&quot;&gt;cash out a*2b 50 notes are possible&lt;br&gt;f=f-(a*2b)" style="whiteSpace=wrap;html=1;fontSize=21;gradientColor=none;spacing=3;fontStyle=1;" vertex="1" parent="1">
                    <mxGeometry x="-1700" y="2091" width="640" height="177" as="geometry"/>
                </mxCell>
                <mxCell id="253" value="" style="edgeStyle=none;html=1;fontSize=21;" edge="1" parent="1" source="255" target="258">
                    <mxGeometry relative="1" as="geometry"/>
                </mxCell>
                <mxCell id="254" value="" style="edgeStyle=none;html=1;fontSize=21;" edge="1" parent="1" source="255" target="267">
                    <mxGeometry relative="1" as="geometry"/>
                </mxCell>
                <mxCell id="255" value="g &amp;gt; = c" style="shape=hexagon;perimeter=hexagonPerimeter2;whiteSpace=wrap;html=1;fixedSize=1;fontSize=21;gradientColor=none;spacing=3;fontStyle=1;" vertex="1" parent="1">
                    <mxGeometry x="-672" y="2369" width="120" height="80" as="geometry"/>
                </mxCell>
                <mxCell id="256" value="" style="edgeStyle=none;html=1;fontSize=21;" edge="1" parent="1" source="258" target="260">
                    <mxGeometry relative="1" as="geometry"/>
                </mxCell>
                <mxCell id="257" value="" style="edgeStyle=none;html=1;fontSize=21;entryX=0.5;entryY=0;entryDx=0;entryDy=0;" edge="1" parent="1" source="258" target="262">
                    <mxGeometry relative="1" as="geometry">
                        <mxPoint x="-693" y="2690.0000000000005" as="targetPoint"/>
                        <Array as="points"/>
                    </mxGeometry>
                </mxCell>
                <mxCell id="258" value="h &amp;gt; = d" style="shape=hexagon;perimeter=hexagonPerimeter2;whiteSpace=wrap;html=1;fixedSize=1;fontSize=21;gradientColor=none;spacing=3;fontStyle=1;" vertex="1" parent="1">
                    <mxGeometry x="-234" y="2543" width="120" height="80" as="geometry"/>
                </mxCell>
                <mxCell id="259" value="" style="edgeStyle=none;html=1;fontSize=21;" edge="1" parent="1" source="260" target="272">
                    <mxGeometry relative="1" as="geometry">
                        <Array as="points"/>
                    </mxGeometry>
                </mxCell>
                <mxCell id="260" value="&lt;font style=&quot;font-size: 21px&quot;&gt;cash out a*2b +b 50 c 20 d 10&lt;/font&gt;" style="whiteSpace=wrap;html=1;fontSize=21;gradientColor=none;spacing=3;fontStyle=1;" vertex="1" parent="1">
                    <mxGeometry x="-97.5" y="2671" width="169" height="95" as="geometry"/>
                </mxCell>
                <mxCell id="261" value="" style="edgeStyle=none;html=1;fontSize=21;" edge="1" parent="1" source="262" target="264">
                    <mxGeometry relative="1" as="geometry"/>
                </mxCell>
                <mxCell id="262" value="cash out a*2b+b 50 c 20 and print ( d amount of 10 notes are no longer at atm)" style="whiteSpace=wrap;html=1;fontSize=21;gradientColor=none;" vertex="1" parent="1">
                    <mxGeometry x="-384" y="2669" width="180" height="120" as="geometry"/>
                </mxCell>
                <mxCell id="263" style="edgeStyle=none;html=1;fontSize=21;entryX=0.525;entryY=-0.009;entryDx=0;entryDy=0;entryPerimeter=0;" edge="1" parent="1" source="264" target="273">
                    <mxGeometry relative="1" as="geometry"/>
                </mxCell>
                <mxCell id="264" value="send bank order to refill atm with 10 notes" style="whiteSpace=wrap;html=1;fontSize=21;gradientColor=none;" vertex="1" parent="1">
                    <mxGeometry x="-384" y="2887" width="196" height="148" as="geometry"/>
                </mxCell>
                <mxCell id="265" value="" style="edgeStyle=none;html=1;fontSize=21;exitX=1;exitY=0.5;exitDx=0;exitDy=0;entryX=0;entryY=0.5;entryDx=0;entryDy=0;" edge="1" parent="1" source="267" target="269">
                    <mxGeometry relative="1" as="geometry">
                        <Array as="points">
                            <mxPoint x="-686.5" y="2712"/>
                        </Array>
                    </mxGeometry>
                </mxCell>
                <mxCell id="266" value="" style="edgeStyle=none;html=1;fontSize=21;" edge="1" parent="1" source="267" target="271">
                    <mxGeometry relative="1" as="geometry"/>
                </mxCell>
                <mxCell id="267" value="&lt;font style=&quot;font-size: 21px;&quot;&gt;&amp;nbsp;0 &amp;gt; = h - (d+(2*c))&lt;/font&gt;" style="shape=hexagon;perimeter=hexagonPerimeter2;whiteSpace=wrap;html=1;fixedSize=1;fontSize=21;gradientColor=none;spacing=3;fontStyle=1;" vertex="1" parent="1">
                    <mxGeometry x="-1027" y="2621" width="230" height="60" as="geometry"/>
                </mxCell>
                <mxCell id="268" style="edgeStyle=none;html=1;entryX=0.446;entryY=0.001;entryDx=0;entryDy=0;fontSize=21;entryPerimeter=0;" edge="1" parent="1" target="274">
                    <mxGeometry relative="1" as="geometry">
                        <mxPoint x="-687.4999999999991" y="3037" as="sourcePoint"/>
                    </mxGeometry>
                </mxCell>
                <mxCell id="269" value="cash out a*2b+b 50 (c*2)+d amount of 10" style="whiteSpace=wrap;html=1;fontSize=21;gradientColor=none;spacing=3;fontStyle=1;direction=south;" vertex="1" parent="1">
                    <mxGeometry x="-756.5" y="2862" width="204.5" height="180.5" as="geometry"/>
                </mxCell>
                <mxCell id="270" value="" style="edgeStyle=none;html=1;fontSize=21;" edge="1" parent="1" source="271" target="276">
                    <mxGeometry relative="1" as="geometry"/>
                </mxCell>
                <mxCell id="271" value="print on screen only a*2b+b 50 is possible at the moment" style="whiteSpace=wrap;html=1;fontSize=21;gradientColor=none;spacing=3;fontStyle=1;" vertex="1" parent="1">
                    <mxGeometry x="-972.5" y="2721" width="124" height="161" as="geometry"/>
                </mxCell>
                <mxCell id="272" value="&lt;font style=&quot;font-size: 21px&quot;&gt;e = 0&lt;br style=&quot;font-size: 21px&quot;&gt;f = f - b&lt;br style=&quot;font-size: 21px&quot;&gt;g = g- c&lt;br style=&quot;font-size: 21px&quot;&gt;h = h-d&lt;br style=&quot;font-size: 21px&quot;&gt;send data back to data box&lt;br style=&quot;font-size: 21px&quot;&gt;&lt;br style=&quot;font-size: 21px&quot;&gt;&lt;/font&gt;" style="whiteSpace=wrap;html=1;fontSize=21;gradientColor=none;spacing=3;fontStyle=1;" vertex="1" parent="1">
                    <mxGeometry x="-90.5" y="3288" width="155" height="280" as="geometry"/>
                </mxCell>
                <mxCell id="273" value="&lt;font style=&quot;font-size: 21px&quot;&gt;e = 0&lt;br style=&quot;font-size: 21px&quot;&gt;f = f - b&amp;nbsp;&lt;br style=&quot;font-size: 21px&quot;&gt;g = g- c&amp;nbsp;&lt;br style=&quot;font-size: 21px&quot;&gt;h = 0&lt;br style=&quot;font-size: 21px&quot;&gt;send data back to data box&lt;br style=&quot;font-size: 21px&quot;&gt;&lt;br style=&quot;font-size: 21px&quot;&gt;&lt;/font&gt;" style="whiteSpace=wrap;html=1;fontSize=21;gradientColor=none;spacing=3;fontStyle=1;" vertex="1" parent="1">
                    <mxGeometry x="-376" y="3288" width="180" height="280" as="geometry"/>
                </mxCell>
                <mxCell id="274" value="&lt;font style=&quot;font-size: 21px&quot;&gt;e = 0&lt;br style=&quot;font-size: 21px&quot;&gt;f = f - b&lt;br style=&quot;font-size: 21px&quot;&gt;g = 0&lt;br style=&quot;font-size: 21px&quot;&gt;h = h-d&lt;br style=&quot;font-size: 21px&quot;&gt;send data back to data box&lt;br style=&quot;font-size: 21px&quot;&gt;&lt;br style=&quot;font-size: 21px&quot;&gt;&lt;/font&gt;" style="whiteSpace=wrap;html=1;fontSize=21;gradientColor=none;spacing=3;fontStyle=1;" vertex="1" parent="1">
                    <mxGeometry x="-756.5" y="3267" width="155" height="280" as="geometry"/>
                </mxCell>
                <mxCell id="275" value="" style="edgeStyle=none;html=1;fontSize=21;" edge="1" parent="1" source="276" target="278">
                    <mxGeometry relative="1" as="geometry"/>
                </mxCell>
                <mxCell id="276" value="send bank refill order of 20 and 10" style="whiteSpace=wrap;html=1;fontSize=21;gradientColor=none;spacing=3;fontStyle=1;" vertex="1" parent="1">
                    <mxGeometry x="-986.5" y="2930" width="140" height="95" as="geometry"/>
                </mxCell>
                <mxCell id="277" style="edgeStyle=none;html=1;entryX=0.5;entryY=0;entryDx=0;entryDy=0;fontSize=21;" edge="1" parent="1" source="278" target="279">
                    <mxGeometry relative="1" as="geometry"/>
                </mxCell>
                <mxCell id="278" value="cash out a a*2b 50" style="whiteSpace=wrap;html=1;fontSize=21;gradientColor=none;spacing=3;fontStyle=1;" vertex="1" parent="1">
                    <mxGeometry x="-976.5" y="3122.5" width="120" height="60" as="geometry"/>
                </mxCell>
                <mxCell id="279" value="&lt;font style=&quot;font-size: 21px&quot;&gt;e = 0&lt;br style=&quot;font-size: 21px&quot;&gt;f = f - b&lt;br style=&quot;font-size: 21px&quot;&gt;g = 0&lt;br style=&quot;font-size: 21px&quot;&gt;h = h-d&lt;br style=&quot;font-size: 21px&quot;&gt;send data back to data box&lt;br style=&quot;font-size: 21px&quot;&gt;&lt;br style=&quot;font-size: 21px&quot;&gt;&lt;/font&gt;" style="whiteSpace=wrap;html=1;fontSize=21;gradientColor=none;spacing=3;fontStyle=1;" vertex="1" parent="1">
                    <mxGeometry x="-994" y="3237" width="155" height="280" as="geometry"/>
                </mxCell>
                <mxCell id="309" style="edgeStyle=none;html=1;entryX=0.5;entryY=0;entryDx=0;entryDy=0;fontSize=21;" edge="1" parent="1" source="281" target="288">
                    <mxGeometry relative="1" as="geometry"/>
                </mxCell>
                <mxCell id="281" value="f &amp;gt; = b" style="shape=hexagon;perimeter=hexagonPerimeter2;whiteSpace=wrap;html=1;fixedSize=1;fontSize=21;gradientColor=none;spacing=3;fontStyle=1;" vertex="1" parent="1">
                    <mxGeometry x="-1464" y="2346" width="345" height="80" as="geometry"/>
                </mxCell>
                <mxCell id="286" value="" style="edgeStyle=none;html=1;fontSize=21;" edge="1" parent="1" source="288" target="290">
                    <mxGeometry relative="1" as="geometry"/>
                </mxCell>
                <mxCell id="287" value="" style="edgeStyle=none;html=1;fontSize=21;" edge="1" parent="1" source="288" target="296">
                    <mxGeometry relative="1" as="geometry"/>
                </mxCell>
                <mxCell id="288" value="50 &amp;gt;= (2g*20)+(h *10)" style="shape=hexagon;perimeter=hexagonPerimeter2;whiteSpace=wrap;html=1;fixedSize=1;fontSize=21;gradientColor=none;spacing=3;fontStyle=1;" vertex="1" parent="1">
                    <mxGeometry x="-1883" y="2599" width="288" height="112" as="geometry"/>
                </mxCell>
                <mxCell id="289" value="" style="edgeStyle=none;html=1;fontSize=21;" edge="1" parent="1" source="290" target="292">
                    <mxGeometry relative="1" as="geometry"/>
                </mxCell>
                <mxCell id="290" value="print on screen b*2g 20 notes b*h 10 notes possible" style="whiteSpace=wrap;html=1;fontSize=21;gradientColor=none;spacing=3;fontStyle=1;" vertex="1" parent="1">
                    <mxGeometry x="-1515" y="2776" width="232" height="227" as="geometry"/>
                </mxCell>
                <mxCell id="291" style="edgeStyle=none;html=1;entryX=0.5;entryY=0;entryDx=0;entryDy=0;fontSize=21;" edge="1" parent="1" source="292" target="293">
                    <mxGeometry relative="1" as="geometry"/>
                </mxCell>
                <mxCell id="292" value="cash out&lt;br style=&quot;font-size: 21px&quot;&gt;&amp;nbsp;&amp;nbsp;&lt;br style=&quot;font-size: 21px&quot;&gt;&amp;nbsp;b*2g 20&lt;br style=&quot;font-size: 21px&quot;&gt;h 10" style="whiteSpace=wrap;html=1;fontSize=21;gradientColor=none;spacing=3;fontStyle=1;" vertex="1" parent="1">
                    <mxGeometry x="-1485" y="3041" width="184" height="181.5" as="geometry"/>
                </mxCell>
                <mxCell id="293" value="&lt;font style=&quot;font-size: 21px;&quot;&gt;e = e -a&lt;br style=&quot;font-size: 21px;&quot;&gt;f = 0&lt;br style=&quot;font-size: 21px;&quot;&gt;g = 0&lt;br style=&quot;font-size: 21px;&quot;&gt;h = h-d&lt;br style=&quot;font-size: 21px;&quot;&gt;send data back to data box&lt;br style=&quot;font-size: 21px;&quot;&gt;&lt;br style=&quot;font-size: 21px;&quot;&gt;&lt;/font&gt;" style="whiteSpace=wrap;html=1;fontSize=21;gradientColor=none;spacing=3;fontStyle=1;" vertex="1" parent="1">
                    <mxGeometry x="-1466" y="3261" width="155" height="280" as="geometry"/>
                </mxCell>
                <mxCell id="294" value="" style="edgeStyle=none;html=1;fontSize=21;" edge="1" parent="1" source="296" target="298">
                    <mxGeometry relative="1" as="geometry"/>
                </mxCell>
                <mxCell id="295" value="" style="edgeStyle=none;html=1;fontSize=21;" edge="1" parent="1" source="296" target="303">
                    <mxGeometry relative="1" as="geometry"/>
                </mxCell>
                <mxCell id="296" value="50 &amp;gt;= 5h" style="shape=hexagon;perimeter=hexagonPerimeter2;whiteSpace=wrap;html=1;fixedSize=1;fontSize=21;gradientColor=none;spacing=3;fontStyle=1;" vertex="1" parent="1">
                    <mxGeometry x="-2197" y="2842.5" width="285" height="138" as="geometry"/>
                </mxCell>
                <mxCell id="297" value="" style="edgeStyle=none;html=1;fontSize=21;" edge="1" parent="1" source="298" target="300">
                    <mxGeometry relative="1" as="geometry"/>
                </mxCell>
                <mxCell id="298" value="print on screen&amp;nbsp; b*5h 10 notes are possible" style="whiteSpace=wrap;html=1;fontSize=21;gradientColor=none;spacing=3;fontStyle=1;" vertex="1" parent="1">
                    <mxGeometry x="-1813" y="3043.5" width="178" height="281.5" as="geometry"/>
                </mxCell>
                <mxCell id="299" value="" style="edgeStyle=none;html=1;fontSize=21;entryX=0.5;entryY=0;entryDx=0;entryDy=0;" edge="1" parent="1" source="300" target="301">
                    <mxGeometry relative="1" as="geometry">
                        <mxPoint x="-1730" y="3775.625" as="targetPoint"/>
                    </mxGeometry>
                </mxCell>
                <mxCell id="300" value="cash out a*2b 50notes&amp;nbsp;&lt;br style=&quot;font-size: 21px&quot;&gt;b*5h 10" style="whiteSpace=wrap;html=1;fontSize=21;gradientColor=none;spacing=3;fontStyle=1;" vertex="1" parent="1">
                    <mxGeometry x="-1822" y="3378" width="184" height="231.75" as="geometry"/>
                </mxCell>
                <mxCell id="301" value="&lt;font style=&quot;font-size: 21px&quot;&gt;e = 0&lt;br style=&quot;font-size: 21px&quot;&gt;f = f - b&lt;br style=&quot;font-size: 21px&quot;&gt;g = 0&lt;br style=&quot;font-size: 21px&quot;&gt;h = h-d&lt;br style=&quot;font-size: 21px&quot;&gt;send data back to data box&lt;br style=&quot;font-size: 21px&quot;&gt;&lt;br style=&quot;font-size: 21px&quot;&gt;&lt;/font&gt;" style="whiteSpace=wrap;html=1;fontSize=21;gradientColor=none;spacing=3;fontStyle=1;" vertex="1" parent="1">
                    <mxGeometry x="-1797" y="3779" width="155" height="280" as="geometry"/>
                </mxCell>
                <mxCell id="302" value="" style="edgeStyle=none;html=1;fontSize=21;" edge="1" parent="1" source="303" target="305">
                    <mxGeometry relative="1" as="geometry"/>
                </mxCell>
                <mxCell id="303" value="pring &quot; we dont have 50 notes&quot;" style="whiteSpace=wrap;html=1;fontSize=21;gradientColor=none;spacing=3;fontStyle=1;" vertex="1" parent="1">
                    <mxGeometry x="-2561" y="3008" width="268" height="136" as="geometry"/>
                </mxCell>
                <mxCell id="304" value="" style="edgeStyle=none;html=1;fontSize=21;" edge="1" parent="1" source="305" target="307">
                    <mxGeometry relative="1" as="geometry"/>
                </mxCell>
                <mxCell id="305" value="send bank refill order of 50 , 20 , 10 notes" style="whiteSpace=wrap;html=1;fontSize=21;gradientColor=none;spacing=3;fontStyle=1;" vertex="1" parent="1">
                    <mxGeometry x="-2561" y="3224" width="254" height="146" as="geometry"/>
                </mxCell>
                <mxCell id="306" style="edgeStyle=none;html=1;entryX=0.5;entryY=0;entryDx=0;entryDy=0;fontSize=21;" edge="1" parent="1" source="307" target="308">
                    <mxGeometry relative="1" as="geometry"/>
                </mxCell>
                <mxCell id="307" value="cash out a 100" style="whiteSpace=wrap;html=1;fontSize=21;gradientColor=none;spacing=3;fontStyle=1;" vertex="1" parent="1">
                    <mxGeometry x="-2582" y="3493" width="288" height="130" as="geometry"/>
                </mxCell>
                <mxCell id="308" value="&lt;font style=&quot;font-size: 21px;&quot;&gt;e = e -a&lt;br style=&quot;font-size: 21px;&quot;&gt;f = f - b&lt;br style=&quot;font-size: 21px;&quot;&gt;g = 0&lt;br style=&quot;font-size: 21px;&quot;&gt;h = h-d&lt;br style=&quot;font-size: 21px;&quot;&gt;send data back to data box&lt;br style=&quot;font-size: 21px;&quot;&gt;&lt;br style=&quot;font-size: 21px;&quot;&gt;&lt;/font&gt;" style="whiteSpace=wrap;html=1;fontSize=21;gradientColor=none;spacing=3;fontStyle=1;" vertex="1" parent="1">
                    <mxGeometry x="-2515.5" y="3725" width="155" height="280" as="geometry"/>
                </mxCell>
                <mxCell id="320" value="" style="edgeStyle=none;html=1;fontSize=21;" edge="1" parent="1" source="314" target="319">
                    <mxGeometry relative="1" as="geometry"/>
                </mxCell>
                <mxCell id="314" value="send data back&lt;br&gt;" style="whiteSpace=wrap;html=1;fontSize=21;gradientColor=none;" vertex="1" parent="1">
                    <mxGeometry x="-240" y="4783" width="547" height="167" as="geometry"/>
                </mxCell>
                <mxCell id="319" value="End" style="ellipse;whiteSpace=wrap;html=1;fontSize=21;gradientColor=none;" vertex="1" parent="1">
                    <mxGeometry x="-273" y="5104" width="821" height="340.5" as="geometry"/>
                </mxCell>
            </root>
        </mxGraphModel>
    </diagram>
</mxfile>